ply                 
format ascii 1.0    
element vertex 12
property float x    
property float y    
property float z    
element edge 9
property int vertex1
property int vertex2
property uchar red  
property uchar green
property uchar blue 
end_header          
0.376563 0.071382 0.303384
0.574484 0.0758717 0.331795
0.37146 0.271278 0.307341
0.348256 0.0667418 0.501317
-0.380238 0.0415563 0.299993
-0.181399 0.0305045 0.281533
-0.368915 0.241221 0.302419
-0.361943 0.0380998 0.499125
-1.03906 0.0450581 0.705551
-0.852356 0.0175848 0.639319
-1.01494 0.243093 0.691396
-0.971535 0.0502853 0.893734
0 1 255 0 0
0 2 0 255 0
0 3 0 0 255
4 5 255 0 0
4 6 0 255 0
4 7 0 0 255
8 9 255 0 0
8 10 0 255 0
8 11 0 0 255
