ply                 
format ascii 1.0    
element vertex 16
property float x    
property float y    
property float z    
element edge 12
property int vertex1
property int vertex2
property uchar red  
property uchar green
property uchar blue 
end_header          
2.1911 0.26282 1.50117
2.36369 0.260841 1.60222
2.18537 0.462268 1.51487
2.0902 0.2481 1.67323
0.931356 0.0763736 0.788946
1.12681 0.0754067 0.831354
0.930016 0.276081 0.799672
0.888958 0.0656075 0.984103
0.419622 0.104224 0.717999
0.619122 0.105561 0.732061
0.417868 0.30413 0.72387
0.405605 0.0982436 0.917418
-0.0756937 -0.0405692 0.819032
0.124293 -0.0397974 0.821193
-0.0764696 0.159429 0.819422
-0.0778532 -0.0409674 1.01902
0 1 255 0 0
0 2 0 255 0
0 3 0 0 255
4 5 255 0 0
4 6 0 255 0
4 7 0 0 255
8 9 255 0 0
8 10 0 255 0
8 11 0 0 255
12 13 255 0 0
12 14 0 255 0
12 15 0 0 255
